# xmcd CD database file
#
# Track frame offsets:
#	150
#	20908
#	39265
#	61059
#	87660
#	115729
#	133583
#	169340
#	181741
#	209844
#	237784
#	251102
#	277644
#	297558
#
# Disc length: 4186 seconds
#
# Revision: 0
# Processed by: cddbd v1.5.2PL0 Copyright (c) Steve Scherf et al.
# Submitted via: CDex 1.51
#
DISCID=cd10580e
DTITLE=Sampler - Blues Guitar Killers
DYEAR=2005
DGENRE=Blues
TTITLE0=Magic Slim - Spider In My Stew
TTITLE1=Eddie Clearwater - 2 X 9
TTITLE2=Lurrie Bell - What Can A Poor Man Do
TTITLE3=Johnny B. Moore - Lookin' Good
TTITLE4=Vance Kelly - Foot Loose and Fancy Free
TTITLE5=Eddie Taylor Jr. - Worried About My Baby
TTITLE6=Freddie King - Stormy Monday Blues
TTITLE7=Jimmy Rogers - Chicago Bound
TTITLE8=John Primer - Smile In Your Face
TTITLE9=Michael Coleman - Mustang Sally
TTITLE10=Otis Rush - I Can`t Quit You Baby
TTITLE11=Phil Guy - What Have I Done
TTITLE12=Hubert Sumlin - I`ve Been Gone
TTITLE13=U.P.Wilson - Crossroads
EXTD=YEAR: 2005
EXTT0=
EXTT1=
EXTT2=
EXTT3=
EXTT4=
EXTT5=
EXTT6=
EXTT7=
EXTT8=
EXTT9=
EXTT10=
EXTT11=
EXTT12=
EXTT13=
PLAYORDER=
